<?xml version="1.0" encoding="UTF-8" standalone="no"?>
<!-- Generator: Adobe Illustrator 18.0.0, SVG Export Plug-In . SVG Version: 6.00 Build 0)  -->

<svg
   xmlns:dc="http://purl.org/dc/elements/1.1/"
   xmlns:cc="http://creativecommons.org/ns#"
   xmlns:rdf="http://www.w3.org/1999/02/22-rdf-syntax-ns#"
   xmlns:svg="http://www.w3.org/2000/svg"
   xmlns="http://www.w3.org/2000/svg"
   xmlns:sodipodi="http://sodipodi.sourceforge.net/DTD/sodipodi-0.dtd"
   xmlns:inkscape="http://www.inkscape.org/namespaces/inkscape"
   fill="#ff6566"
   version="1.1"
   id="Capa_1"
   x="0px"
   y="0px"
   viewBox="0 0 251.882 251.882"
   style="enable-background:new 0 0 251.882 251.882;"
   xml:space="preserve"
   inkscape:version="0.91 r13725"
   sodipodi:docname="003-signs.svg"><metadata
     id="metadata43"><rdf:RDF><cc:Work
         rdf:about=""><dc:format>image/svg+xml</dc:format><dc:type
           rdf:resource="http://purl.org/dc/dcmitype/StillImage" /></cc:Work></rdf:RDF></metadata><defs
     id="defs41" /><sodipodi:namedview
     pagecolor="#ffffff"
     bordercolor="#666666"
     borderopacity="1"
     objecttolerance="10"
     gridtolerance="10"
     guidetolerance="10"
     inkscape:pageopacity="0"
     inkscape:pageshadow="2"
     inkscape:window-width="1920"
     inkscape:window-height="1027"
     id="namedview39"
     showgrid="false"
     inkscape:zoom="1.8738933"
     inkscape:cx="105.13932"
     inkscape:cy="106.43677"
     inkscape:window-x="-8"
     inkscape:window-y="-8"
     inkscape:window-maximized="1"
     inkscape:current-layer="Capa_1" /><g
     id="g3"
     transform="matrix(0.70710678,0.70710678,-0.70710678,0.70710678,125.94116,-52.166868)"><path
       d="m 215.037,36.846 c -49.129,-49.128 -129.063,-49.128 -178.191,0 -49.127,49.127 -49.127,129.063 0,178.19 24.564,24.564 56.83,36.846 89.096,36.846 32.266,0 64.531,-12.282 89.096,-36.846 49.126,-49.127 49.126,-129.063 -0.001,-178.19 z M 49.574,202.309 C 7.465,160.2 7.465,91.683 49.574,49.574 70.629,28.52 98.285,17.992 125.941,17.992 c 27.656,0 55.313,10.527 76.367,31.582 42.109,42.109 42.109,110.626 0,152.735 -42.109,42.108 -110.625,42.108 -152.734,0 z"
       id="path5"
       inkscape:connector-curvature="0" /><path
       d="m 194.823,116.941 -59.882,0 0,-59.882 c 0,-4.971 -4.029,-9 -9,-9 -4.971,0 -9,4.029 -9,9 l 0,59.882 -59.882,0 c -4.971,0 -9,4.029 -9,9 0,4.971 4.029,9 9,9 l 59.882,0 0,59.882 c 0,4.971 4.029,9 9,9 4.971,0 9,-4.029 9,-9 l 0,-59.882 59.882,0 c 4.971,0 9,-4.029 9,-9 0,-4.971 -4.029,-9 -9,-9 z"
       id="path7"
       inkscape:connector-curvature="0" /></g><g
     id="g9"
     transform="matrix(0.70710678,0.70710678,-0.70710678,0.70710678,125.94116,-52.166868)" /><g
     id="g11"
     transform="matrix(0.70710678,0.70710678,-0.70710678,0.70710678,125.94116,-52.166868)" /><g
     id="g13"
     transform="matrix(0.70710678,0.70710678,-0.70710678,0.70710678,125.94116,-52.166868)" /><g
     id="g15"
     transform="matrix(0.70710678,0.70710678,-0.70710678,0.70710678,125.94116,-52.166868)" /><g
     id="g17"
     transform="matrix(0.70710678,0.70710678,-0.70710678,0.70710678,125.94116,-52.166868)" /><g
     id="g19"
     transform="matrix(0.70710678,0.70710678,-0.70710678,0.70710678,125.94116,-52.166868)" /><g
     id="g21"
     transform="matrix(0.70710678,0.70710678,-0.70710678,0.70710678,125.94116,-52.166868)" /><g
     id="g23"
     transform="matrix(0.70710678,0.70710678,-0.70710678,0.70710678,125.94116,-52.166868)" /><g
     id="g25"
     transform="matrix(0.70710678,0.70710678,-0.70710678,0.70710678,125.94116,-52.166868)" /><g
     id="g27"
     transform="matrix(0.70710678,0.70710678,-0.70710678,0.70710678,125.94116,-52.166868)" /><g
     id="g29"
     transform="matrix(0.70710678,0.70710678,-0.70710678,0.70710678,125.94116,-52.166868)" /><g
     id="g31"
     transform="matrix(0.70710678,0.70710678,-0.70710678,0.70710678,125.94116,-52.166868)" /><g
     id="g33"
     transform="matrix(0.70710678,0.70710678,-0.70710678,0.70710678,125.94116,-52.166868)" /><g
     id="g35"
     transform="matrix(0.70710678,0.70710678,-0.70710678,0.70710678,125.94116,-52.166868)" /><g
     id="g37"
     transform="matrix(0.70710678,0.70710678,-0.70710678,0.70710678,125.94116,-52.166868)" /></svg>