<?xml version="1.0" encoding="iso-8859-1"?>
<!-- Generator: Adobe Illustrator 18.0.0, SVG Export Plug-In . SVG Version: 6.00 Build 0)  -->
<!DOCTYPE svg PUBLIC "-//W3C//DTD SVG 1.1//EN" "http://www.w3.org/Graphics/SVG/1.1/DTD/svg11.dtd">
<svg fill="#ffe793" version="1.1" id="Capa_1" xmlns="http://www.w3.org/2000/svg" xmlns:xlink="http://www.w3.org/1999/xlink" x="0px" y="0px"
	 viewBox="0 0 262.186 262.186" style="enable-background:new 0 0 262.186 262.186;" xml:space="preserve">
<g>
	<path d="M260.758,105.017c-1.656-2.577-4.509-4.135-7.572-4.135h-36.813V76.3c0-4.971-4.029-9-9-9h-72.1V52.051
		c0-4.971-4.029-9-9-9H9c-4.971,0-9,4.029-9,9v158.084c0,4.971,4.029,9,9,9h198.374c3.523,0,6.722-2.056,8.186-5.26l45.813-100.253
		C262.646,110.837,262.414,107.594,260.758,105.017z M23.008,201.135l37.587-82.253h178.583l-37.587,82.253H23.008z M54.813,100.882
		c-3.523,0-6.722,2.056-8.186,5.26L18,168.787V61.051h99.273V76.3c0,4.971,4.029,9,9,9h67.158h4.942v15.582H54.813z"/>
</g>
<g>
</g>
<g>
</g>
<g>
</g>
<g>
</g>
<g>
</g>
<g>
</g>
<g>
</g>
<g>
</g>
<g>
</g>
<g>
</g>
<g>
</g>
<g>
</g>
<g>
</g>
<g>
</g>
<g>
</g>
</svg>
