<?xml version="1.0" encoding="UTF-8" standalone="no"?>
<!-- Generator: Adobe Illustrator 18.0.0, SVG Export Plug-In . SVG Version: 6.00 Build 0)  -->

<svg
   xmlns:dc="http://purl.org/dc/elements/1.1/"
   xmlns:cc="http://creativecommons.org/ns#"
   xmlns:rdf="http://www.w3.org/1999/02/22-rdf-syntax-ns#"
   xmlns:svg="http://www.w3.org/2000/svg"
   xmlns="http://www.w3.org/2000/svg"
   xmlns:sodipodi="http://sodipodi.sourceforge.net/DTD/sodipodi-0.dtd"
   xmlns:inkscape="http://www.inkscape.org/namespaces/inkscape"
   version="1.1"
   id="Capa_1"
   x="0px"
   y="0px"
   viewBox="0 0 200 200"
   style="fill:#ff6566"
   xml:space="preserve"
   sodipodi:docname="plus.svg"
   inkscape:version="0.92.1 r15371"
   width="200"
   height="200"><metadata
   id="metadata43"><rdf:RDF><cc:Work
       rdf:about=""><dc:format>image/svg+xml</dc:format><dc:type
         rdf:resource="http://purl.org/dc/dcmitype/StillImage" /><dc:title></dc:title></cc:Work></rdf:RDF></metadata><defs
   id="defs41">
	
	

	
	
</defs><sodipodi:namedview
   pagecolor="#ffffff"
   bordercolor="#666666"
   borderopacity="1"
   objecttolerance="10"
   gridtolerance="10"
   guidetolerance="10"
   inkscape:pageopacity="0"
   inkscape:pageshadow="2"
   inkscape:window-width="2560"
   inkscape:window-height="1377"
   id="namedview39"
   showgrid="false"
   inkscape:snap-path-clip="true"
   inkscape:snap-path-mask="true"
   showguides="true"
   inkscape:guide-bbox="true"
   inkscape:zoom="2.8284271"
   inkscape:cx="-8.0040681"
   inkscape:cy="133.89542"
   inkscape:window-x="-8"
   inkscape:window-y="-8"
   inkscape:window-maximized="1"
   inkscape:current-layer="Capa_1"
   inkscape:snap-tangential="true"
   inkscape:snap-perpendicular="true"><inkscape:grid
     type="xygrid"
     id="grid4525"
     spacingx="10"
     spacingy="10" /></sodipodi:namedview>

<g
   id="g8"
   transform="translate(0,-83.194)">
</g>
<g
   id="g10"
   transform="translate(0,-83.194)">
</g>
<g
   id="g12"
   transform="translate(0,-83.194)">
</g>
<g
   id="g14"
   transform="translate(0,-83.194)">
</g>
<g
   id="g16"
   transform="translate(0,-83.194)">
</g>
<g
   id="g18"
   transform="translate(0,-83.194)">
</g>
<g
   id="g20"
   transform="translate(0,-83.194)">
</g>
<g
   id="g22"
   transform="translate(0,-83.194)">
</g>
<g
   id="g24"
   transform="translate(0,-83.194)">
</g>
<g
   id="g26"
   transform="translate(0,-83.194)">
</g>
<g
   id="g28"
   transform="translate(0,-83.194)">
</g>
<g
   id="g30"
   transform="translate(0,-83.194)">
</g>
<g
   id="g32"
   transform="translate(0,-83.194)">
</g>
<g
   id="g34"
   transform="translate(0,-83.194)">
</g>
<g
   id="g36"
   transform="translate(0,-83.194)">
</g>
<g
   style="fill:#80e580"
   id="g4656"
   transform="translate(8.5623569,-41.609648)">
</g><g
   style="fill:#80e580"
   id="g4658"
   transform="translate(8.5623569,-41.609648)">
</g><g
   style="fill:#80e580"
   id="g4660"
   transform="translate(8.5623569,-41.609648)">
</g><g
   style="fill:#80e580"
   id="g4662"
   transform="translate(8.5623569,-41.609648)">
</g><g
   style="fill:#80e580"
   id="g4664"
   transform="translate(8.5623569,-41.609648)">
</g><g
   style="fill:#80e580"
   id="g4666"
   transform="translate(8.5623569,-41.609648)">
</g><g
   style="fill:#80e580"
   id="g4668"
   transform="translate(8.5623569,-41.609648)">
</g><g
   style="fill:#80e580"
   id="g4670"
   transform="translate(8.5623569,-41.609648)">
</g><g
   style="fill:#80e580"
   id="g4672"
   transform="translate(8.5623569,-41.609648)">
</g><g
   style="fill:#80e580"
   id="g4674"
   transform="translate(8.5623569,-41.609648)">
</g><g
   style="fill:#80e580"
   id="g4676"
   transform="translate(8.5623569,-41.609648)">
</g><g
   style="fill:#80e580"
   id="g4678"
   transform="translate(8.5623569,-41.609648)">
</g><g
   style="fill:#80e580"
   id="g4680"
   transform="translate(8.5623569,-41.609648)">
</g><g
   style="fill:#80e580"
   id="g4682"
   transform="translate(8.5623569,-41.609648)">
</g><g
   style="fill:#80e580"
   id="g4684"
   transform="translate(8.5623569,-41.609648)">
</g><path
   style="fill:#d3d3d3;fill-opacity:1;stroke-width:1.4928534"
   d="m 100.00152,1.4103112 c -7.420914,0 -13.43668,6.0157704 -13.43668,13.4366788 v 71.717823 h -0.0015 -71.716321 c -7.420914,-2e-6 -13.4336734,6.014258 -13.4336773,13.435178 1.5e-6,7.420909 6.0117089,13.434719 13.4336773,13.433669 l 52.717049,0.002 h 19.000773 l -0.0015,19.00377 0.0015,52.71705 c 5e-6,7.42093 6.013813,13.43473 13.433674,13.43367 7.420915,0 13.436685,-6.01576 13.436685,-13.43667 V 113.4352 h 0.002 71.71632 c 7.42091,0 13.43368,-6.01426 13.43368,-13.43518 0,-7.420912 -6.01171,-13.434729 -13.43368,-13.433676 l -52.71705,-0.0015 H 113.4352 l 0.002,-19.003775 -0.002,-52.717049 C 113.43519,7.4230514 107.42138,1.4092453 100.00152,1.4103058 Z"
   id="path4773"
   inkscape:connector-curvature="0" /></svg>