<?xml version="1.0" encoding="iso-8859-1"?>
<!-- Generator: Adobe Illustrator 18.0.0, SVG Export Plug-In . SVG Version: 6.00 Build 0)  -->
<!DOCTYPE svg PUBLIC "-//W3C//DTD SVG 1.1//EN" "http://www.w3.org/Graphics/SVG/1.1/DTD/svg11.dtd">
<svg fill="#80e580" version="1.1" id="Capa_1" xmlns="http://www.w3.org/2000/svg" xmlns:xlink="http://www.w3.org/1999/xlink" x="0px" y="0px"
	 viewBox="0 0 207.166 207.166" style="enable-background:new 0 0 207.166 207.166;" xml:space="preserve">
<g>
	<path d="M168.353,189.166H38.813c-4.971,0-9,4.029-9,9s4.029,9,9,9h129.54c4.971,0,9-4.029,9-9S173.324,189.166,168.353,189.166z"
		/>
	<path d="M97.219,163.138c1.757,1.757,4.061,2.636,6.364,2.636s4.606-0.879,6.364-2.636l40.333-40.333
		c3.515-3.515,3.515-9.213,0-12.728c-3.514-3.515-9.213-3.515-12.728,0l-24.97,24.969V9c0-4.971-4.029-9-9-9s-9,4.029-9,9v126.047
		l-24.97-24.969c-3.515-3.516-9.213-3.515-12.728,0c-3.515,3.515-3.515,9.213,0,12.728L97.219,163.138z"/>
</g>
<g>
</g>
<g>
</g>
<g>
</g>
<g>
</g>
<g>
</g>
<g>
</g>
<g>
</g>
<g>
</g>
<g>
</g>
<g>
</g>
<g>
</g>
<g>
</g>
<g>
</g>
<g>
</g>
<g>
</g>
</svg>
